<?xml version="1.0" encoding="utf-8"?>
<!-- Generated by IcoMoon.io -->
<!DOCTYPE svg PUBLIC "-//W3C//DTD SVG 1.1//EN" "http://www.w3.org/Graphics/SVG/1.1/DTD/svg11.dtd">
<svg version="1.1" xmlns="http://www.w3.org/2000/svg" xmlns:xlink="http://www.w3.org/1999/xlink" width="50" height="50" viewBox="0 0 50 50">
<g>
</g>
	<path d="M12.69 7.625c0 2.658-1.963 4.81-5.19 4.81-3.037 0-5-2.152-5-4.81 0-2.72 2.027-4.81 5.127-4.81s5 2.090 5.063 4.81zM2.755 47.185v-30.95h9.62v30.95h-9.62zM18.133 26.108c0-3.86-0.127-7.088-0.255-9.873h8.355l0.445 4.305h0.19c1.265-2.027 4.367-5 9.558-5 6.327 0 11.075 4.24 11.075 13.355v18.292h-9.62v-17.152c0-3.988-1.395-6.71-4.875-6.71-2.658 0-4.238 1.835-4.935 3.608-0.255 0.633-0.317 1.517-0.317 2.405v17.85h-9.62v-21.080z" fill="#f5f7f7" />
</svg>
