<?xml version="1.0" encoding="utf-8"?>
<!-- Generated by IcoMoon.io -->
<!DOCTYPE svg PUBLIC "-//W3C//DTD SVG 1.1//EN" "http://www.w3.org/Graphics/SVG/1.1/DTD/svg11.dtd">
<svg version="1.1" xmlns="http://www.w3.org/2000/svg" xmlns:xlink="http://www.w3.org/1999/xlink" width="50" height="50" viewBox="0 0 50 50">
<g>
</g>
	<path d="M50 9.493c-1.84 0.816-3.817 1.367-5.892 1.615 2.118-1.27 3.744-3.28 4.51-5.675-1.982 1.176-4.178 2.029-6.514 2.489-1.871-1.994-4.537-3.239-7.488-3.239-5.665 0-10.258 4.593-10.258 10.258 0 0.804 0.091 1.587 0.266 2.338-8.525-0.428-16.084-4.512-21.143-10.718-0.883 1.515-1.389 3.277-1.389 5.157 0 3.559 1.811 6.699 4.563 8.538-1.682-0.053-3.263-0.515-4.646-1.283-0.001 0.043-0.001 0.086-0.001 0.129 0 4.97 3.536 9.116 8.229 10.059-0.861 0.234-1.767 0.36-2.703 0.36-0.661 0-1.304-0.064-1.93-0.184 1.305 4.075 5.094 7.041 9.583 7.124-3.511 2.751-7.934 4.391-12.74 4.391-0.828 0-1.645-0.049-2.447-0.144 4.54 2.911 9.932 4.609 15.725 4.609 18.868 0 29.186-15.631 29.186-29.187 0-0.445-0.010-0.887-0.030-1.327 2.005-1.446 3.744-3.253 5.119-5.31z" fill="#f5f7f7" />
</svg>
