<?xml version="1.0" encoding="utf-8"?>
<!-- Generator: Adobe Illustrator 16.2.1, SVG Export Plug-In . SVG Version: 6.00 Build 0)  -->
<!DOCTYPE svg PUBLIC "-//W3C//DTD SVG 1.1//EN" "http://www.w3.org/Graphics/SVG/1.1/DTD/svg11.dtd">
<svg version="1.1" id="Layer_1" xmlns="http://www.w3.org/2000/svg" xmlns:xlink="http://www.w3.org/1999/xlink" x="0px" y="0px"
	 width="50px" height="50px" viewBox="0 0 50 50" enable-background="new 0 0 50 50" xml:space="preserve">
<path fill="#F5F7F7" d="M12.69,7.625c0,2.658-1.963,4.81-5.19,4.81c-3.037,0-5-2.152-5-4.81c0-2.72,2.027-4.81,5.127-4.81
	S12.627,4.905,12.69,7.625z M2.755,47.186V16.235h9.62v30.951H2.755z M18.133,26.107c0-3.859-0.127-7.087-0.255-9.873h8.354
	l0.445,4.305h0.19c1.265-2.027,4.366-5,9.558-5c6.327,0,11.075,4.24,11.075,13.354v18.293h-9.62V30.035
	c0-3.988-1.395-6.71-4.875-6.71c-2.658,0-4.238,1.835-4.936,3.608c-0.254,0.633-0.316,1.517-0.316,2.404v17.85h-9.62L18.133,26.107
	L18.133,26.107z"/>
</svg>
