<?xml version="1.0" encoding="utf-8"?>
<!-- Generator: Adobe Illustrator 18.0.0, SVG Export Plug-In . SVG Version: 6.00 Build 0)  -->
<!DOCTYPE svg PUBLIC "-//W3C//DTD SVG 1.1//EN" "http://www.w3.org/Graphics/SVG/1.1/DTD/svg11.dtd">
<svg version="1.1" id="Layer_1" xmlns="http://www.w3.org/2000/svg" xmlns:xlink="http://www.w3.org/1999/xlink" x="0px" y="0px"
	 viewBox="0 0 800 200" enable-background="new 0 0 800 200" xml:space="preserve">
<g>
	<g>
		<polygon fill="#4789C8" points="69.6,43 74.8,197.7 208.3,166.3 208.3,20.7 		"/>
		<polygon fill="#497BBD" points="115.2,10.8 115.2,122.5 15.7,143.4 69.9,44.8 		"/>
		<polygon fill="#4772B7" points="205.1,166.3 115.2,121.1 6,145.1 74.8,197.7 		"/>
		<polygon fill="#DDE122" points="5,15 5,144.8 74.8,197.7 74.8,43.1 		"/>
		<polygon fill="#DF1F26" points="115.5,-0.5 5,15 74.8,43.1 208.3,20.7 		"/>
	</g>
	<path fill="#231F20" d="M277.4,72.4h21.4c13.7,0,15.7,2.4,15.7,10.7c0,9.7-2.7,13-18.7,13h-34.9c-14.8,0-16-4.6-16-9.7v-8.3h-15.3
		v8.5c0,23.4,23.3,23.4,33.3,23.4H294c13.4,0,35.8,0,35.8-24.3v-5.4c0-20.2-17.9-22.8-33.5-22.8H263c-17.5,0-18.3-3.3-18.3-10.8
		c0-10.7,3.8-12.4,27-12.4h11.9c28.5,0,28.5,1.8,28.7,13.3l0,2.3h15.3v-5.2c0-17.7-10.1-24.3-37.3-24.3h-24.2
		c-23.3,0-36.8,4.2-36.8,25.6C229.4,71.3,245,72.4,277.4,72.4z"/>
	<g>
		<rect x="346" y="45.9" fill="#231F20" width="14.7" height="63.3"/>
		<rect x="346" y="21.3" fill="#231F20" width="14.7" height="15.6"/>
	</g>
	<path fill="#231F20" d="M478.7,85.8v-5.4c0-20.2-17.9-22.8-33.5-22.8h-33.3c-17.5,0-18.3-3.3-18.3-10.8c0-10.7,3.8-12.4,27-12.4
		h11.9c28.5,0,28.5,1.8,28.7,13.3l0,2.3h15.3v-5.2c0-17.7-10.1-24.3-37.3-24.3h-24.2c-23.3,0-36.8,4.2-36.8,25.6
		c0,25.4,15.6,26.5,48,26.5h21.4c13.7,0,15.7,2.4,15.7,10.7c0,9.7-2.7,13-18.7,13h-34.9c-14.7,0-16-4.6-16-9.7v-8.3h-15.3v8.5
		c0,23.4,23.3,23.4,33.3,23.4h31.2C456.3,110.1,478.7,110.1,478.7,85.8z"/>
	<polygon fill="#231F20" points="522.4,109.2 538.4,109.2 538.4,35.2 580.5,35.2 580.5,21.3 480.4,21.3 480.4,35.2 522.4,35.2 	"/>
	<path fill="#231F20" d="M564.3,71v12.8c0,23.4,16,26.4,29.9,26.4h17.9c14.9,0,31.9-2.3,31.9-19.8v-3.6h-14.5l-0.1,2.2
		c-0.4,6.3-2.6,8.3-15.6,8.3h-13.6c-16.7,0-21.3-3.1-21.3-14.4v-1.3H644v-8.9c0-24.6-17.5-27.8-32.8-27.8h-15.8
		C586.1,44.9,564.3,44.9,564.3,71z M579.1,68.8c1-9.5,4.1-11.1,17.6-11.1h14.5c8.3,0,18.2,1.6,18.2,9.5v1.5H579.1z"/>
	<path fill="#231F20" d="M745.7,88.5v20.7h15.3V85.6c0-7.3-2.6-12.3-8.2-15.3c5-2.1,9.2-6.6,9.2-16.2v-6.8
		c0-16.8-4.8-25.9-30.2-25.9h-68.9v87.9h16V76.3h52.5C741.2,76.3,745.7,77.6,745.7,88.5z M679.1,35.2h48.8c17.3,0,18.2,3.4,18.2,9.9
		v7.6c0,6.1-2.5,9.7-15.4,9.7h-51.6V35.2z"/>
	<polygon fill="#231F20" points="226.9,134.6 244.4,134.6 244.4,165.4 251.5,165.4 251.5,134.6 269,134.6 269,128.4 226.9,128.4 	
		"/>
	<polygon fill="#231F20" points="280.6,149.5 308.7,149.5 308.7,143.2 280.6,143.2 280.6,134.6 309.9,134.6 309.9,128.4 
		273.5,128.4 273.5,165.4 310.1,165.4 310.1,159.2 280.6,159.2 	"/>
	<path fill="#231F20" d="M352.7,154.7c0,3.5-0.6,4.8-6.9,4.8h-16.4c-5,0-6.9-1.7-6.9-6.2v-13c0-4.4,1.9-6.2,6.9-6.2h16.3
		c4.7,0,6.7,0.5,6.7,5v2.8h6.5v-4.2c0-4.5-2.1-9.8-12.1-9.8h-17.9c-9.5,0-13.5,4.2-13.5,14.2v9.5c0,9.9,4,14.1,13.5,14.1h17.7
		c10.7,0,12.9-4.3,12.9-10.9v-3.6h-6.8V154.7z"/>
	<polygon fill="#231F20" points="402,143.2 373.2,143.2 373.2,128.4 366.1,128.4 366.1,165.4 373.2,165.4 373.2,149.5 402,149.5 
		402,165.4 409.1,165.4 409.1,128.4 402,128.4 	"/>
	<polygon fill="#231F20" points="455.8,157.2 425.7,128.4 417.1,128.4 417.1,165.4 424.2,165.4 424.2,136.6 454.2,165.4 
		462.8,165.4 462.8,128.4 455.8,128.4 	"/>
	<path fill="#231F20" d="M503.4,128h-19.9c-9.5,0-13.5,4.2-13.5,14.2v9.5c0,9.9,4.1,14.1,13.5,14.1h19.9c9.5,0,13.5-4.2,13.5-14.1
		v-9.5C516.9,132.2,512.8,128,503.4,128z M509.8,140.4v13c0,4.4-1.9,6.2-6.9,6.2h-19c-5,0-6.9-1.7-6.9-6.2v-13
		c0-4.4,1.9-6.2,6.9-6.2h19C507.9,134.2,509.8,135.9,509.8,140.4z"/>
	<polygon fill="#231F20" points="531.3,128.4 524.2,128.4 524.2,165.4 558.2,165.4 558.2,159.2 531.3,159.2 	"/>
	<path fill="#231F20" d="M594.8,128h-19.9c-9.5,0-13.5,4.2-13.5,14.2v9.5c0,9.9,4.1,14.1,13.5,14.1h19.9c9.5,0,13.5-4.2,13.5-14.1
		v-9.5C608.4,132.2,604.3,128,594.8,128z M601.3,140.4v13c0,4.4-2,6.2-6.9,6.2h-19c-5,0-6.9-1.7-6.9-6.2v-13c0-4.4,1.9-6.2,6.9-6.2
		h19C599.3,134.2,601.3,135.9,601.3,140.4z"/>
	<path fill="#231F20" d="M635.7,152.1h17.8v2.3c0,3.7-1.8,5.2-6.4,5.2h-18.3c-5,0-6.9-1.7-6.9-6.2v-13c0-4.4,2-6.2,6.9-6.2h12.1
		c11.9,0,12.4,0.7,12.4,5.7v1.2h6.8v-2.4c0-7.1-4.7-10.7-14.1-10.7h-17.7c-9.5,0-13.5,4.2-13.5,14.2v9.5c0,9.9,4,14.1,13.5,14.1
		h19.3c9.3,0,12.9-3.9,12.9-14v-6h-24.8V152.1z"/>
	<rect x="668" y="128.4" fill="#231F20" width="7.1" height="37"/>
	<polygon fill="#231F20" points="690.6,149.5 718.7,149.5 718.7,143.2 690.6,143.2 690.6,134.6 719.9,134.6 719.9,128.4 
		683.5,128.4 683.5,165.4 720.1,165.4 720.1,159.2 690.6,159.2 	"/>
	<path fill="#231F20" d="M753.4,143.5h-13.9c-7.4,0-7.4-1.4-7.4-4.3c0-4.3,1.5-5,11-5h5c11.7,0,11.7,0.7,11.8,5.3l0,1.2h6.8v-2.4
		c0-7.5-4.3-10.3-15.7-10.3h-10.1c-9.6,0-15.5,1.8-15.5,10.8c0,10.8,6.5,11.2,20.2,11.2h8.9c5.9,0,6.4,1.1,6.4,4.3
		c0,4-1.1,5.2-7.6,5.2h-14.5c-6,0-6.5-1.7-6.5-3.8v-3.6h-6.8v3.7c0,9.9,9.9,9.9,14.1,9.9h13c5.6,0,15.1,0,15.1-10.3v-2.2
		C767.6,144.5,759.5,143.5,753.4,143.5z"/>
	<g>
		<path fill="#231F20" d="M776.2,22.6h-3.8v-1.4h9.2v1.4h-3.8v11h-1.6V22.6z"/>
		<path fill="#231F20" d="M793.4,28.2c-0.1-1.7-0.2-3.8-0.2-5.3h0c-0.4,1.4-0.9,3-1.6,4.7l-2.2,6h-1.2l-2-5.9
			c-0.6-1.8-1.1-3.3-1.4-4.8h0c0,1.5-0.1,3.6-0.2,5.5l-0.3,5.3h-1.5l0.9-12.4h2l2.1,6c0.5,1.5,0.9,2.9,1.2,4.2h0
			c0.3-1.3,0.8-2.6,1.3-4.2l2.2-6h2l0.8,12.4h-1.6L793.4,28.2z"/>
	</g>
</g>
</svg>
