<?xml version="1.0" encoding="utf-8"?>
<!-- Generator: Adobe Illustrator 18.0.0, SVG Export Plug-In . SVG Version: 6.00 Build 0)  -->
<!DOCTYPE svg PUBLIC "-//W3C//DTD SVG 1.1//EN" "http://www.w3.org/Graphics/SVG/1.1/DTD/svg11.dtd">
<svg version="1.1" id="Layer_1" xmlns="http://www.w3.org/2000/svg" xmlns:xlink="http://www.w3.org/1999/xlink" x="0px" y="0px"
	 viewBox="0 0 100 42.7" enable-background="new 0 0 100 42.7" xml:space="preserve">
<g>
	<path fill="#3B5283" d="M49.7,31.6l-6.9-0.9L36,29.8c-0.1,0-0.1,0.1-0.1,0.1l1.7,3.4c-16.8,3.8-17.7-2.1-17.8-2.8
		c0,0-2.9-1.7-3-1.7c-1.3,2.8-1.3,4.9-0.3,7c2.6,5.2,12.2,5.9,23.5,2.4l1.8,3.5c0,0.1,0.1,0.1,0.2,0l3.9-5.1l3.9-5.1
		C49.9,31.6,49.8,31.6,49.7,31.6z"/>
	<path fill="#3B5283" d="M38.6,7.4C37,8.2,35.5,9,34.1,9.9h3c0.7-0.4,1.5-0.8,2.2-1.2c11.8-6,23.2-7.5,27.2-3.9h6.4
		C68.8-1.4,53.8-0.3,38.6,7.4z"/>
	<g>
		<g>
			<path fill="#30302F" d="M42,26.4V12.6h3.8v13.8H42z"/>
			<path fill="#30302F" d="M51.5,19.7v6.8h-3.8V12.6h3l5.5,7v-7H60v13.8h-3L51.5,19.7z"/>
			<g>
				<path fill="#30302F" d="M61.7,26.4V7.7h5.2v18.8H61.7z"/>
				<path fill="#30302F" d="M84.2,12.2h-5.4v14.3h-5.2V12.2h-5.4V7.7h16V12.2z"/>
			</g>
		</g>
		<g>
			<g>
				<path fill="#30302F" d="M27.1,16.9c-1.9-1.1-3.3-1.2-3.7-1.3c-0.5,0-0.7,0.1-0.7,0.1c-0.5,0.2-0.5,1,0.1,1.2
					c1.4,0.5,3.1,1,3.8,1.4c2.8,1.4,2.6,3.3,2.6,3.9c0,0.9-0.2,1.4-0.6,2c-1.4,2-3.4,2.2-4.8,2.2c-3.2,0-5.6-1.4-6-1.6l1.6-3.3
					c2.8,1.8,4.5,1.5,4.5,1.5c0.7,0,1.1-0.3,1.1-0.5c0.1-0.5-0.6-0.9-0.9-0.9c-3.5-0.9-4.5-1.9-4.8-2.2c-1.1-1.1-1.1-3.3-0.4-4.4
					c1.3-2.3,3.4-2.7,4.8-2.7c1.8,0,4.9,1.3,5.2,1.5L27.1,16.9z"/>
			</g>
			<g>
				<path fill="#30302F" d="M30.4,26.4v-14h6c1.3,0,3.6,0.9,4.4,3.1c0.2,0.6,0.4,1.2,0.4,1.8c0,0.6-0.1,1.2-0.3,1.8
					c-0.2,0.6-0.8,1.7-2.4,2.6c-0.5,0.3-1.2,0.4-1.9,0.4h-2.3v4.3H30.4z M34.2,18.8h2c0.2,0,0.5-0.1,0.7-0.3
					c0.2-0.2,0.3-0.6,0.3-1.2c0-0.6-0.1-1-0.4-1.2c-0.2-0.2-0.5-0.3-0.7-0.3h-1.9V18.8z"/>
			</g>
		</g>
	</g>
</g>
</svg>
