<?xml version="1.0" encoding="utf-8"?>
<!-- Generator: Adobe Illustrator 18.0.0, SVG Export Plug-In . SVG Version: 6.00 Build 0)  -->
<!DOCTYPE svg PUBLIC "-//W3C//DTD SVG 1.1//EN" "http://www.w3.org/Graphics/SVG/1.1/DTD/svg11.dtd">
<svg version="1.1" id="Layer_1" xmlns="http://www.w3.org/2000/svg" xmlns:xlink="http://www.w3.org/1999/xlink" x="0px" y="0px"
	 viewBox="0 0 100 40.8" enable-background="new 0 0 100 40.8" xml:space="preserve">
<g>
	<g>
		<path fill="#CA3333" d="M52.4,32.3c-1.6,0-3-0.6-4.1-1.7s-1.7-2.6-1.7-4.1c0-1.6,0.6-3,1.7-4.1c1.1-1.1,2.4-1.7,4.1-1.7h3.5
			c0,0.9-0.2,1.6-0.7,2.1s-1,0.7-1.7,0.7h-1c-0.8,0-1.4,0.3-2,0.9c-0.6,0.6-0.8,1.3-0.8,2c0,0.8,0.3,1.5,0.8,2
			c0.5,0.6,1.2,0.9,2,0.9h1c0.7,0,1.2,0.2,1.7,0.7s0.7,1.2,0.7,2.1H52.4z"/>
		<path fill="#CA3333" d="M59.5,32.3c-1,0-1.8-0.3-2.6-1s-1-1.5-1-2.6c0-1,0.3-1.8,1-2.6s1.5-1.1,2.6-1.1s1.8,0.4,2.6,1.1
			s1.1,1.6,1.1,2.6v3.7h-3.7V32.3z M61.3,28.8c0-0.5-0.2-0.9-0.5-1.3s-0.8-0.5-1.2-0.5c-0.5,0-0.9,0.2-1.2,0.5
			c-0.3,0.4-0.5,0.8-0.5,1.3c0,0.5,0.2,0.9,0.5,1.3s0.8,0.5,1.2,0.5h1.8v-1.8H61.3z"/>
		<path fill="#CA3333" d="M69.4,26.4c-0.3,0.3-0.7,0.5-1.1,0.5h-0.6c-0.5,0-0.9,0.2-1.2,0.5c-0.3,0.4-0.5,0.8-0.5,1.3v2
			c0,0.4-0.2,0.8-0.5,1.1c-0.3,0.3-0.8,0.5-1.3,0.5v-3.7c0-1,0.3-1.8,1-2.6c0.7-0.7,1.5-1,2.6-1h2.2C69.9,25.6,69.7,26.1,69.4,26.4z
			"/>
		<path fill="#CA3333" d="M75.2,32.3c-1.3,0-2.3-0.4-3.3-1.3s-1.4-2-1.4-3.4v-6.9c0.7,0,1.3,0.2,1.7,0.6c0.4,0.4,0.6,0.9,0.6,1.5
			v4.8c0,0.6,0.2,1.2,0.7,1.6c0.4,0.5,1,0.7,1.6,0.7H76c0.5,0,1,0.2,1.4,0.6s0.6,1,0.6,1.7C78.1,32.3,75.2,32.3,75.2,32.3z"/>
		<path fill="#CA3333" d="M81.3,32.3c-1,0-1.8-0.3-2.6-1c-0.7-0.7-1.1-1.5-1.1-2.6c0-1,0.3-1.8,1.1-2.7c0.7-0.7,1.5-1.1,2.6-1.1
			c1,0,1.8,0.4,2.6,1.1c0.7,0.7,1.1,1.6,1.1,2.7c0,1-0.4,1.8-1.1,2.6C83.2,32,82.3,32.3,81.3,32.3z M81.3,26.8
			c-0.5,0-0.9,0.2-1.3,0.5c-0.3,0.4-0.5,0.8-0.5,1.3c0,0.5,0.2,0.9,0.5,1.3c0.3,0.4,0.8,0.5,1.2,0.5c0.5,0,0.9-0.2,1.2-0.5
			c0.3-0.4,0.5-0.8,0.5-1.3c0-0.5-0.2-0.9-0.5-1.3C82.2,27,81.8,26.8,81.3,26.8z"/>
		<g>
			<path fill="#CA3333" d="M89.3,32.3c-1,0-1.8-0.3-2.6-1c-0.7-0.7-1-1.5-1-2.6v-5.4c0.6,0,1,0.2,1.3,0.5c0.3,0.3,0.5,0.7,0.5,1.2
				v3.8c0,0.5,0.2,0.9,0.5,1.3c0.3,0.4,0.8,0.5,1.2,0.5h0.6c0.4,0,0.8,0.2,1.1,0.5c0.3,0.3,0.5,0.7,0.5,1.3h-2.2V32.3z"/>
			<path fill="#CA3333" d="M90.3,27.6c-0.3,0.3-0.7,0.5-1.1,0.5h-0.3c-0.2,0-0.5-0.1-0.6-0.3c-0.2-0.2-0.3-0.4-0.3-0.6
				s0.1-0.5,0.3-0.6c0.2-0.2,0.4-0.3,0.6-0.3h1.9C90.8,26.9,90.6,27.3,90.3,27.6z"/>
		</g>
	</g>
	<g>
		<path fill="#F7971F" d="M26.2,32.3h-3.6v-3.7c0-1,0.3-1.8,1-2.6s1.5-1.1,2.6-1.1c1,0,1.8,0.4,2.6,1.1s1,1.5,1,2.6
			c0,1-0.3,1.8-1,2.6C28.1,32,27.2,32.3,26.2,32.3z M26.2,26.8c-0.5,0-0.9,0.2-1.2,0.5c-0.3,0.4-0.5,0.8-0.5,1.3v1.8h1.7
			c0.5,0,0.9-0.2,1.2-0.5c0.3-0.4,0.5-0.8,0.5-1.3c0-0.5-0.2-0.9-0.5-1.3C27.1,27,26.7,26.8,26.2,26.8z"/>
		<path fill="#F7971F" d="M40.2,32.3c-1,0-1.8-0.3-2.4-1c-0.7-0.7-1-1.5-1-2.6c0-1,0.3-1.8,1-2.6s1.5-1.1,2.4-1.1
			c1,0,1.8,0.4,2.4,1.1c0.7,0.7,1,1.5,1,2.6c0,1-0.3,1.8-1,2.6C42,32,41.1,32.3,40.2,32.3z M40.2,26.8c-0.5,0-0.9,0.2-1.2,0.5
			c-0.3,0.4-0.5,0.8-0.5,1.3c0,0.5,0.2,0.9,0.5,1.3s0.7,0.5,1.2,0.5s0.9-0.2,1.2-0.5c0.3-0.4,0.5-0.8,0.5-1.3c0-0.5-0.2-0.9-0.5-1.3
			C41.1,27,40.7,26.8,40.2,26.8z"/>
		<path fill="#F7971F" d="M33.9,32.3c-1,0-1.8-0.3-2.4-1c-0.7-0.7-1-1.5-1-2.6c0-1,0.3-1.8,1-2.6c0.7-0.7,1.5-1.1,2.4-1.1H36
			c0,0.6-0.1,1-0.4,1.3c-0.3,0.3-0.6,0.5-1.1,0.5h-0.6c-0.5,0-0.9,0.2-1.2,0.5c-0.3,0.4-0.5,0.8-0.5,1.3c0,0.5,0.2,0.9,0.5,1.3
			s0.7,0.5,1.2,0.5h0.6c0.4,0,0.8,0.2,1.1,0.5s0.4,0.7,0.4,1.3h-2.1V32.3z M35.6,29.2c-0.3,0.3-0.6,0.5-1.1,0.5h-1.1
			c-0.2,0-0.4-0.1-0.6-0.3c-0.1-0.2-0.1-0.4-0.1-0.6s0.1-0.5,0.2-0.6c0.2-0.2,0.4-0.3,0.6-0.3h2.7C36.1,28.3,35.9,28.9,35.6,29.2z"
			/>
		<path fill="#F7971F" d="M20.3,31.9c-0.3-0.3-0.5-0.7-0.5-1.1v-5.6c0.6,0,1,0.2,1.3,0.5s0.5,0.7,0.5,1.1v5.6
			C21.1,32.3,20.6,32.2,20.3,31.9z"/>
		<path fill="#F7971F" d="M20.6,19.9c-0.8-0.3-1.6-0.3-2.2,0c-0.6,0.3-1.1,0.8-1.3,1.5l-2.4,8.1l-2.6-8c-0.2-0.7-0.7-1.2-1.3-1.5
			c-0.6-0.3-1.4-0.3-2.2,0l3,8.5l0.3,1c0.4,1,0.7,1.8,1.1,2.3c0.4,0.5,1,0.6,1.6,0.6c0.2,0,0.4,0,0.7-0.1c0.3,0,0.6-0.1,0.8-0.3
			c0.2-0.2,0.5-0.5,0.6-0.8c0.2-0.3,0.4-0.7,0.6-1.3l0.4-1.2L20.6,19.9z"/>
	</g>
	<path fill="#F7971F" d="M99.9,25.1c1.9-10.4-28.4-10.9-28.4-10.9c-8.7-7.2-12.4-8-21-8.2c-15.2,0.3-26.8,6.7-36.1,8.8
		c-0.4,0-0.7,0.1-1.1,0.2c-0.9,0-4.4,0.1-5.6-0.6c0,0,1.1,1.3,2.9,1.5c-2.8,1.1-4.8,2.8-4.8,2.8c-2.3,2.8-4.3,5-5,7.4
		c-0.8,2.3-2.1,6,4.6,6c0,0-0.1,0-0.3-0.1l-1.8-0.8c-2.4-1.2-1-3.3-0.6-5.1C3.8,23.3,5,22.3,9,18.7c3.9-3.5,12-3.6,13-3.9
		c4.9-0.5,12.7-1.2,20.5-1.2l-15.7-0.4c6.6-2.3,15-5.2,23.3-5.7c10.5-0.5,15.4,4.8,17,7.1c-4.1,0.1-17.1,0.3-14.2,0.3
		c2.8,0.1,15.5,0.8,15.5,0.8c1,0.1,1.5,0,1.5,0l4.5,0.1c25.2,0.1,23.1,9.8,23.1,9.8l-1.7,5.3c-0.4,0.2-1.6,0.4-2.9,0.6
		c0,0.2,0,0.4-0.1,0.7h4.4C97.2,29.9,98.6,26.5,99.9,25.1z"/>
	<path fill="#F7971F" d="M88.3,22.1c-1.6-1.7-3.7-2.9-6.1-3.2c-3.3-0.4-6.4,0.8-8.7,3.2c2.2-1.6,5.2-2.3,8.3-2
		c2.2,0.3,4.2,1.1,5.8,2.3C87.8,22.3,88,22.2,88.3,22.1z"/>
	<path fill="#F7971F" d="M21.6,18.9c-0.5,0.1-1,0.2-1.5,0.4c0.2,0,0.4,0.1,0.7,0.2l0.6,0.2l-0.2,0.5c0.1,0,0.2-0.1,0.4-0.1
		c3.3-0.6,6.5,0.1,9.1,1.8c0.1,0,0.2-0.1,0.3-0.1C28.6,19.5,25.1,18.2,21.6,18.9z"/>
</g>
</svg>
